<svg xmlns="http://www.w3.org/2000/svg" xmlns:xlink="http://www.w3.org/1999/xlink" version="1.1" x="0px" y="0px" viewBox="0 0 100 125" enable-background="new 0 0 100 100" xml:space="preserve"><path d="M30,92.5h40c12.407,0,22.5-10.093,22.5-22.5V30C92.5,17.593,82.407,7.5,70,7.5H30C17.593,7.5,7.5,17.593,7.5,30v40  C7.5,82.407,17.593,92.5,30,92.5z M12.5,30c0-9.649,7.851-17.5,17.5-17.5h40c9.649,0,17.5,7.851,17.5,17.5v40  c0,9.649-7.851,17.5-17.5,17.5H30c-9.649,0-17.5-7.851-17.5-17.5V30z"/><path d="M27.5,68.75c0,1.001,0.39,1.943,1.098,2.651l0,0c0,0,0,0,0,0c1.416,1.416,3.888,1.417,5.303,0L50,55.303l16.098,16.098  c0.708,0.709,1.65,1.099,2.652,1.099s1.944-0.39,2.651-1.098c0.708-0.708,1.099-1.65,1.099-2.652s-0.39-1.943-1.099-2.651L55.303,50  l16.099-16.098c0.708-0.708,1.099-1.65,1.099-2.652s-0.39-1.943-1.098-2.651c-1.416-1.418-3.888-1.417-5.303,0L50,44.697  L33.902,28.599c-1.416-1.418-3.888-1.417-5.303-0.001c-0.708,0.708-1.099,1.65-1.099,2.652s0.39,1.943,1.099,2.651L44.697,50  L28.599,66.098C27.89,66.807,27.5,67.748,27.5,68.75z M30.366,67.866l16.982-16.982c0.488-0.488,0.488-1.279,0-1.768L30.366,32.133  C30.13,31.897,30,31.584,30,31.25s0.13-0.647,0.367-0.884c0.472-0.472,1.294-0.472,1.767,0l16.982,16.982  c0.488,0.488,1.279,0.488,1.768,0l16.983-16.983c0.472-0.472,1.294-0.473,1.767,0.001C69.87,30.603,70,30.916,70,31.25  s-0.13,0.647-0.366,0.884L52.651,49.116c-0.488,0.488-0.488,1.279,0,1.768l16.982,16.983C69.87,68.103,70,68.416,70,68.75  s-0.13,0.647-0.367,0.884c-0.472,0.472-1.294,0.472-1.767,0L50.884,52.651C50.64,52.407,50.32,52.285,50,52.285  s-0.64,0.122-0.884,0.366L32.133,69.634c-0.472,0.472-1.295,0.472-1.767,0c0,0,0,0,0-0.001C30.13,69.397,30,69.084,30,68.75  S30.13,68.103,30.366,67.866z"/><text x="0" y="115" fill="#000000" font-size="5px" font-weight="bold" font-family="'Helvetica Neue', Helvetica, Arial-Unicode, Arial, Sans-serif">Created by Arthur Shlain</text><text x="0" y="120" fill="#000000" font-size="5px" font-weight="bold" font-family="'Helvetica Neue', Helvetica, Arial-Unicode, Arial, Sans-serif">from the Noun Project</text></svg>