<svg xmlns="http://www.w3.org/2000/svg" xmlns:xlink="http://www.w3.org/1999/xlink" version="1.1" x="0px" y="0px" viewBox="0 0 100.01 125" style="enable-background:new 0 0 100.01 100;" xml:space="preserve"><path d="M50.01,5c-24.85,0-45,20.15-45,45c0,24.85,20.15,45,45,45c24.85,0,45-20.15,45-45C95.01,25.15,74.86,5,50.01,5z   M68.03,34.36c3.92,0,7.09,3.18,7.09,7.09s-3.18,7.09-7.09,7.09s-7.09-3.18-7.09-7.09S64.11,34.36,68.03,34.36z M31.98,34.36  c3.92,0,7.09,3.18,7.09,7.09s-3.18,7.09-7.09,7.09s-7.09-3.18-7.09-7.09S28.06,34.36,31.98,34.36z M75.13,63.3H24.88  c-1.1,0-2-0.9-2-2s0.9-2,2-2h50.24c1.1,0,2,0.9,2,2S76.23,63.3,75.13,63.3z"/><text x="0" y="115" fill="#000000" font-size="5px" font-weight="bold" font-family="'Helvetica Neue', Helvetica, Arial-Unicode, Arial, Sans-serif">Created by Thiago Cruz</text><text x="0" y="120" fill="#000000" font-size="5px" font-weight="bold" font-family="'Helvetica Neue', Helvetica, Arial-Unicode, Arial, Sans-serif">from the Noun Project</text></svg>