<svg xmlns="http://www.w3.org/2000/svg" xmlns:xlink="http://www.w3.org/1999/xlink" version="1.1" x="0px" y="0px" viewBox="0 0 100 125" enable-background="new 0 0 100 100" xml:space="preserve"><path d="M62.2,42l-8,8l8,8L58,62.2l-8-8l-8,8L37.8,58l8-8l-8-8l4.2-4.2l8,8l8-8L62.2,42z M89.5,50  c0,21.8-17.7,39.5-39.5,39.5c-21.8,0-39.5-17.7-39.5-39.5c0-21.8,17.7-39.5,39.5-39.5C71.8,10.5,89.5,28.2,89.5,50z M83.6,50  c0-18.5-15.1-33.6-33.6-33.6S16.4,31.5,16.4,50S31.5,83.6,50,83.6S83.6,68.5,83.6,50z"/><text x="0" y="115" fill="#000000" font-size="5px" font-weight="bold" font-family="'Helvetica Neue', Helvetica, Arial-Unicode, Arial, Sans-serif">Created by Gregor Cresnar</text><text x="0" y="120" fill="#000000" font-size="5px" font-weight="bold" font-family="'Helvetica Neue', Helvetica, Arial-Unicode, Arial, Sans-serif">from the Noun Project</text></svg>