<svg xmlns="http://www.w3.org/2000/svg" xmlns:xlink="http://www.w3.org/1999/xlink" xmlns:sketch="http://www.bohemiancoding.com/sketch/ns" viewBox="0 0 30 37.5" version="1.1" x="0px" y="0px"><title>emotion_006-bored-dull-face-avatar-emoticon-expression-mood</title><desc>Created with Sketch.</desc><g stroke="none" stroke-width="1" fill="none" fill-rule="evenodd" sketch:type="MSPage"><g sketch:type="MSArtboardGroup" transform="translate(-270.000000, -45.000000)" fill="#000000"><path d="M285,74 C292.731986,74 299,67.7319865 299,60 C299,52.2680135 292.731986,46 285,46 C277.268014,46 271,52.2680135 271,60 C271,67.7319865 277.268014,74 285,74 Z M282.5,67 C282.223858,67 282,66.7761424 282,66.5 C282,66.2238576 282.223858,66 282.5,66 L287.5,66 C287.776142,66 288,66.2238576 288,66.5 C288,66.7761424 287.776142,67 287.5,67 L282.5,67 Z M278.43934,56.732233 C278.244078,56.5369709 277.927495,56.5369709 277.732233,56.732233 C277.536971,56.9274952 277.536971,57.2440777 277.732233,57.4393398 L278.792893,58.5 L277.732233,59.5606602 C277.536971,59.7559223 277.536971,60.0725048 277.732233,60.267767 C277.927495,60.4630291 278.244078,60.4630291 278.43934,60.267767 L279.5,59.2071068 L280.56066,60.267767 C280.755922,60.4630291 281.072505,60.4630291 281.267767,60.267767 C281.463029,60.0725048 281.463029,59.7559223 281.267767,59.5606602 L280.207107,58.5 L281.267767,57.4393398 C281.463029,57.2440777 281.463029,56.9274952 281.267767,56.732233 C281.072505,56.5369709 280.755922,56.5369709 280.56066,56.732233 L279.5,57.7928932 L278.43934,56.732233 Z M289.43934,56.732233 C289.244078,56.5369709 288.927495,56.5369709 288.732233,56.732233 C288.536971,56.9274952 288.536971,57.2440777 288.732233,57.4393398 L289.792893,58.5 L288.732233,59.5606602 C288.536971,59.7559223 288.536971,60.0725048 288.732233,60.267767 C288.927495,60.4630291 289.244078,60.4630291 289.43934,60.267767 L290.5,59.2071068 L291.56066,60.267767 C291.755922,60.4630291 292.072505,60.4630291 292.267767,60.267767 C292.463029,60.0725048 292.463029,59.7559223 292.267767,59.5606602 L291.207107,58.5 L292.267767,57.4393398 C292.463029,57.2440777 292.463029,56.9274952 292.267767,56.732233 C292.072505,56.5369709 291.755922,56.5369709 291.56066,56.732233 L290.5,57.7928932 L289.43934,56.732233 Z" sketch:type="MSShapeGroup"/></g></g><text x="0" y="45" fill="#000000" font-size="5px" font-weight="bold" font-family="'Helvetica Neue', Helvetica, Arial-Unicode, Arial, Sans-serif">Created by Pham Thi Dieu Linh</text><text x="0" y="50" fill="#000000" font-size="5px" font-weight="bold" font-family="'Helvetica Neue', Helvetica, Arial-Unicode, Arial, Sans-serif">from the Noun Project</text></svg>