<svg xmlns="http://www.w3.org/2000/svg" data-name="Layer 1" viewBox="0 0 128 160" x="0px" y="0px"><title>miscellaneous 56 final</title><path d="M118,15H10A10.01177,10.01177,0,0,0,0,25V93a10.01177,10.01177,0,0,0,10,10H50.5v6H43a2,2,0,0,0,0,4H85a2,2,0,0,0,0-4H77.5v-6H118a10.01177,10.01177,0,0,0,10-10V25A10.01177,10.01177,0,0,0,118,15ZM73.5,109h-19v-6h19ZM118,99H10a6.00478,6.00478,0,0,1-5.65-4H123.65A6.00478,6.00478,0,0,1,118,99Zm6-8H4V25a6.00656,6.00656,0,0,1,6-6H118a6.00656,6.00656,0,0,1,6,6Z"/><path d="M95,71h-.51184A33.83,33.83,0,1,0,33.5119,71H33a8,8,0,0,0,0,16H95a8,8,0,0,0,0-16ZM64,26.5A29.83452,29.83452,0,0,1,89.97668,71H84V65.67871a20.81391,20.81391,0,0,0-3.60156-11.99707,20.51974,20.51974,0,0,0-5.17468-5.15344,13.07244,13.07244,0,0,1-2.53992,3.1181,16.50109,16.50109,0,0,1,4.43335,4.3244A16.83807,16.83807,0,0,1,80,65.67871V71H76V66a2,2,0,0,0-4,0v5H56V66a2,2,0,0,0-4,0v5H48V65.67871a16.83807,16.83807,0,0,1,2.88281-9.708,16.50109,16.50109,0,0,1,4.43335-4.3244,13.07244,13.07244,0,0,1-2.53992-3.1181,20.51974,20.51974,0,0,0-5.17468,5.15344A20.81391,20.81391,0,0,0,44,65.67871V71H38.02332A29.8346,29.8346,0,0,1,64,26.5ZM95,83H33a4,4,0,0,1,0-8H95a4,4,0,0,1,0,8Z"/><path d="M68.67957,54.1145a12.89513,12.89513,0,0,1-3.91846.84692l.99182,3.4624L64,60.17383l-1.75391-1.751.9856-3.46179a12.89474,12.89474,0,0,1-3.9176-.84888L58.07617,58.459a2.00184,2.00184,0,0,0,.51074,1.96289l4,3.99316a1.99927,1.99927,0,0,0,2.82617,0l4-3.99316a2,2,0,0,0,.50977-1.96582Z"/><path d="M64,51a9,9,0,1,0-9-9A9.00984,9.00984,0,0,0,64,51Zm0-14a5,5,0,1,1-5,5A5.00589,5.00589,0,0,1,64,37Z"/><text x="0" y="143" fill="#000000" font-size="5px" font-weight="bold" font-family="'Helvetica Neue', Helvetica, Arial-Unicode, Arial, Sans-serif">Created by WEBTECHOPS LLP</text><text x="0" y="148" fill="#000000" font-size="5px" font-weight="bold" font-family="'Helvetica Neue', Helvetica, Arial-Unicode, Arial, Sans-serif">from the Noun Project</text></svg>